<mxfile host="app.diagrams.net" modified="2022-04-13T16:35:35.291Z" agent="5.0 (Macintosh; Intel Mac OS X 10_15_7) AppleWebKit/537.36 (KHTML, like Gecko) Chrome/100.0.4896.75 Safari/537.36" etag="FCLeNpvxcimgwj0U-qyw" version="17.4.0" type="github">
  <diagram id="BDYfOgdqv3N1b4y7xZO3" name="Page-1">
    <mxGraphModel dx="851" dy="443" grid="1" gridSize="10" guides="1" tooltips="1" connect="1" arrows="1" fold="1" page="1" pageScale="1" pageWidth="827" pageHeight="1169" math="0" shadow="0">
      <root>
        <mxCell id="0" />
        <mxCell id="1" parent="0" />
        <mxCell id="e9H_UOrKcjnfczfSEE1G-25" value="" style="rounded=0;whiteSpace=wrap;html=1;" vertex="1" parent="1">
          <mxGeometry x="150" y="30" width="670" height="340" as="geometry" />
        </mxCell>
        <mxCell id="e9H_UOrKcjnfczfSEE1G-1" value="DEN DB" style="shape=cylinder3;whiteSpace=wrap;html=1;boundedLbl=1;backgroundOutline=1;size=15;" vertex="1" parent="1">
          <mxGeometry x="170" y="200" width="60" height="80" as="geometry" />
        </mxCell>
        <mxCell id="e9H_UOrKcjnfczfSEE1G-2" value="Reconciler" style="rounded=0;whiteSpace=wrap;html=1;" vertex="1" parent="1">
          <mxGeometry x="310" y="90" width="120" height="60" as="geometry" />
        </mxCell>
        <mxCell id="e9H_UOrKcjnfczfSEE1G-3" value="" style="rounded=0;whiteSpace=wrap;html=1;" vertex="1" parent="1">
          <mxGeometry x="550" y="80" width="250" height="270" as="geometry" />
        </mxCell>
        <mxCell id="e9H_UOrKcjnfczfSEE1G-4" value="GCP" style="text;html=1;strokeColor=none;fillColor=none;align=center;verticalAlign=middle;whiteSpace=wrap;rounded=0;" vertex="1" parent="1">
          <mxGeometry x="750" y="60" width="60" height="30" as="geometry" />
        </mxCell>
        <mxCell id="e9H_UOrKcjnfczfSEE1G-7" value="" style="rounded=0;whiteSpace=wrap;html=1;" vertex="1" parent="1">
          <mxGeometry x="565" y="140" width="215" height="115" as="geometry" />
        </mxCell>
        <mxCell id="e9H_UOrKcjnfczfSEE1G-5" value="DEN Server" style="rounded=0;whiteSpace=wrap;html=1;" vertex="1" parent="1">
          <mxGeometry x="310" y="270" width="120" height="60" as="geometry" />
        </mxCell>
        <mxCell id="e9H_UOrKcjnfczfSEE1G-6" value="DEN Agent" style="rounded=0;whiteSpace=wrap;html=1;" vertex="1" parent="1">
          <mxGeometry x="585" y="180" width="120" height="60" as="geometry" />
        </mxCell>
        <mxCell id="e9H_UOrKcjnfczfSEE1G-8" value="VM" style="text;html=1;strokeColor=none;fillColor=none;align=center;verticalAlign=middle;whiteSpace=wrap;rounded=0;" vertex="1" parent="1">
          <mxGeometry x="555" y="140" width="60" height="30" as="geometry" />
        </mxCell>
        <mxCell id="e9H_UOrKcjnfczfSEE1G-10" value="" style="endArrow=classic;html=1;rounded=0;exitX=0;exitY=0.5;exitDx=0;exitDy=0;entryX=0.5;entryY=0;entryDx=0;entryDy=0;entryPerimeter=0;" edge="1" parent="1" source="e9H_UOrKcjnfczfSEE1G-2" target="e9H_UOrKcjnfczfSEE1G-1">
          <mxGeometry width="50" height="50" relative="1" as="geometry">
            <mxPoint x="390" y="380" as="sourcePoint" />
            <mxPoint x="440" y="330" as="targetPoint" />
          </mxGeometry>
        </mxCell>
        <mxCell id="e9H_UOrKcjnfczfSEE1G-11" value="1. Reconciler queries what to do with pools" style="text;html=1;strokeColor=none;fillColor=none;align=center;verticalAlign=middle;whiteSpace=wrap;rounded=0;" vertex="1" parent="1">
          <mxGeometry x="180" y="110" width="120" height="30" as="geometry" />
        </mxCell>
        <mxCell id="e9H_UOrKcjnfczfSEE1G-12" value="" style="endArrow=classic;html=1;rounded=0;exitX=0;exitY=1;exitDx=0;exitDy=0;entryX=0.855;entryY=0;entryDx=0;entryDy=4.35;entryPerimeter=0;" edge="1" parent="1" source="e9H_UOrKcjnfczfSEE1G-2" target="e9H_UOrKcjnfczfSEE1G-1">
          <mxGeometry width="50" height="50" relative="1" as="geometry">
            <mxPoint x="390" y="360" as="sourcePoint" />
            <mxPoint x="440" y="310" as="targetPoint" />
          </mxGeometry>
        </mxCell>
        <mxCell id="e9H_UOrKcjnfczfSEE1G-13" value="2. Reconciler creates a new intro secret" style="text;html=1;strokeColor=none;fillColor=none;align=center;verticalAlign=middle;whiteSpace=wrap;rounded=0;" vertex="1" parent="1">
          <mxGeometry x="280" y="182.5" width="100" height="30" as="geometry" />
        </mxCell>
        <mxCell id="e9H_UOrKcjnfczfSEE1G-14" value="" style="endArrow=classic;html=1;rounded=0;exitX=1;exitY=0.367;exitDx=0;exitDy=0;exitPerimeter=0;" edge="1" parent="1" source="e9H_UOrKcjnfczfSEE1G-2" target="e9H_UOrKcjnfczfSEE1G-7">
          <mxGeometry width="50" height="50" relative="1" as="geometry">
            <mxPoint x="390" y="330" as="sourcePoint" />
            <mxPoint x="440" y="280" as="targetPoint" />
          </mxGeometry>
        </mxCell>
        <mxCell id="e9H_UOrKcjnfczfSEE1G-15" value="3. Reconciler requests a new VM (with Agent)" style="text;html=1;strokeColor=none;fillColor=none;align=center;verticalAlign=middle;whiteSpace=wrap;rounded=0;" vertex="1" parent="1">
          <mxGeometry x="445" y="90" width="105" height="30" as="geometry" />
        </mxCell>
        <mxCell id="e9H_UOrKcjnfczfSEE1G-16" value="" style="endArrow=classic;html=1;rounded=0;exitX=0.25;exitY=0;exitDx=0;exitDy=0;entryX=0.5;entryY=0;entryDx=0;entryDy=0;" edge="1" parent="1" source="e9H_UOrKcjnfczfSEE1G-7" target="e9H_UOrKcjnfczfSEE1G-6">
          <mxGeometry width="50" height="50" relative="1" as="geometry">
            <mxPoint x="390" y="290" as="sourcePoint" />
            <mxPoint x="440" y="240" as="targetPoint" />
          </mxGeometry>
        </mxCell>
        <mxCell id="e9H_UOrKcjnfczfSEE1G-17" value="4. During startup DEN agent is created" style="text;html=1;strokeColor=none;fillColor=none;align=center;verticalAlign=middle;whiteSpace=wrap;rounded=0;" vertex="1" parent="1">
          <mxGeometry x="615" y="140" width="145" height="30" as="geometry" />
        </mxCell>
        <mxCell id="e9H_UOrKcjnfczfSEE1G-19" value="" style="endArrow=classic;html=1;rounded=0;exitX=0.003;exitY=0.553;exitDx=0;exitDy=0;exitPerimeter=0;entryX=1;entryY=0.5;entryDx=0;entryDy=0;" edge="1" parent="1" source="e9H_UOrKcjnfczfSEE1G-6" target="e9H_UOrKcjnfczfSEE1G-5">
          <mxGeometry width="50" height="50" relative="1" as="geometry">
            <mxPoint x="520" y="220" as="sourcePoint" />
            <mxPoint x="570" y="170" as="targetPoint" />
          </mxGeometry>
        </mxCell>
        <mxCell id="e9H_UOrKcjnfczfSEE1G-20" value="5. DEN Agent registers to DEN Server" style="text;html=1;strokeColor=none;fillColor=none;align=center;verticalAlign=middle;whiteSpace=wrap;rounded=0;" vertex="1" parent="1">
          <mxGeometry x="435" y="290" width="120" height="30" as="geometry" />
        </mxCell>
        <mxCell id="e9H_UOrKcjnfczfSEE1G-21" value="" style="endArrow=classic;html=1;rounded=0;exitX=0;exitY=0.25;exitDx=0;exitDy=0;entryX=1;entryY=0;entryDx=0;entryDy=27.5;entryPerimeter=0;" edge="1" parent="1" source="e9H_UOrKcjnfczfSEE1G-5" target="e9H_UOrKcjnfczfSEE1G-1">
          <mxGeometry width="50" height="50" relative="1" as="geometry">
            <mxPoint x="360" y="230" as="sourcePoint" />
            <mxPoint x="410" y="180" as="targetPoint" />
          </mxGeometry>
        </mxCell>
        <mxCell id="e9H_UOrKcjnfczfSEE1G-22" value="6. DEN Server removes the intro secret and creates agents entry in one transaction" style="text;html=1;strokeColor=none;fillColor=none;align=center;verticalAlign=middle;whiteSpace=wrap;rounded=0;" vertex="1" parent="1">
          <mxGeometry x="170" y="310" width="140" height="30" as="geometry" />
        </mxCell>
      </root>
    </mxGraphModel>
  </diagram>
</mxfile>
